<svg viewBox="0 0 32 32" xmlns="http://www.w3.org/2000/svg"><path d="m5.24 22.51 1.43-1.42a14.06 14.06 0 0 1 -3.6-5.09c2.03-5.07 7.63-9 12.93-9a12.38 12.38 0 0 1 4 .72l1.55-1.56a14.72 14.72 0 0 0 -5.55-1.16 16.69 16.69 0 0 0 -14.94 10.66 1 1 0 0 0 0 .68 16 16 0 0 0 4.18 6.17z"/><path d="m12 15.73a4 4 0 0 1 3.7-3.7l1.81-1.82a6 6 0 0 0 -7.33 7.33z"/><path d="m30.94 15.66a16.4 16.4 0 0 0 -5.74-7.44l4.8-4.81-1.41-1.41-26.59 26.59 1.41 1.41 5.1-5.1a15.29 15.29 0 0 0 7.49 2.1 16.69 16.69 0 0 0 14.94-10.66 1 1 0 0 0 0-.68zm-10.94.34a4 4 0 0 1 -6 3.44l5.44-5.44a4 4 0 0 1 .56 2zm-4 9a13.05 13.05 0 0 1 -6-1.58l2.54-2.54a6 6 0 0 0 8.35-8.35l2.87-2.87a14.54 14.54 0 0 1 5.17 6.34c-2.03 5.07-7.63 9-12.93 9z"/><path d="m0 0h32v32h-32z" fill="none"/></svg>